<?xml version="1.0" encoding="UTF-8" standalone="no"?>
<!-- Created with Inkscape (http://www.inkscape.org/) -->
<svg xmlns:dc="http://purl.org/dc/elements/1.1/" xmlns:cc="http://creativecommons.org/ns#" xmlns:rdf="http://www.w3.org/1999/02/22-rdf-syntax-ns#" xmlns:svg="http://www.w3.org/2000/svg" xmlns="http://www.w3.org/2000/svg" xmlns:sodipodi="http://sodipodi.sourceforge.net/DTD/sodipodi-0.dtd" xmlns:inkscape="http://www.inkscape.org/namespaces/inkscape" version="1.1" width="140" height="32" id="svg2985" inkscape:version="0.91 r13725" sodipodi:docname="gamedev_full1.svg">
  <sodipodi:namedview pagecolor="#ffffff" bordercolor="#666666" borderopacity="1" objecttolerance="10" gridtolerance="10" guidetolerance="10" inkscape:pageopacity="0" inkscape:pageshadow="2" inkscape:window-width="1258" inkscape:window-height="726" id="namedview3440" showgrid="false" inkscape:zoom="9.3" inkscape:cx="70" inkscape:cy="16" inkscape:window-x="0" inkscape:window-y="0" inkscape:window-maximized="0" inkscape:current-layer="svg2985"/>
  <metadata id="metadata2991">
    <rdf:RDF>
      <cc:Work rdf:about="">
        <dc:format>image/svg+xml</dc:format>
        <dc:type rdf:resource="http://purl.org/dc/dcmitype/StillImage"/>
        <dc:title/>
      </cc:Work>
    </rdf:RDF>
  </metadata>
  <defs id="defs2989"/>
  <g transform="translate(0,-1668)" id="layer3" style="display:inline">
    <path d="m 1,1695 25,-24 c 1,0 3,2 3,3 l -24,25 c -2,0 -4,-1.9926 -4,-4 z" id="path3811" style="fill:#d28c64;fill-opacity:1;stroke:none;display:inline"/>
  </g>
  <g transform="translate(0,-1668)" id="layer2" style="display:inline">
    <path d="m 16,1698 c -7,0 -12,-5 -12,-12 0,-7 5.014015,-12.9833 11,-17 l 2,0 c -4.225379,4.548 -9,9 -9,16 0,5.4575 4,9 8,9 4,0 6,-2 8,-4 l -1,-1 c -1,0 -4,3 -4,3 l -2,-2 6,-6 6,6 c -4.225377,4.548 -7,8 -13,8 z" id="path3807" style="fill:#ece6d8;fill-opacity:1;stroke:none"/>
  </g>
  <g transform="translate(12.375,-1678.375)" id="layer4" style="display:inline">
    <path d="m 4.625,1683.375 3,-3 4,2 4,4 2,4 -3,3 -5,-3 -2,-2 z" id="path3809" style="fill:#ece6d8;fill-opacity:1;stroke:none;display:inline"/>
  </g>
  <path d="m 18,7 c 9,0 10.041666,0 10.041666,0 l 1,2 L 19,9 z" id="path3082" style="fill:#70aaaa;fill-opacity:1;stroke:none"/>
  <path d="M 25,4 25,14 23,13 23,3 z" id="path3082-1" style="fill:#70aaaa;fill-opacity:1;stroke:none"/>
  <g transform="translate(0.25,-0.25)" id="text3015" style="line-height:200%;fill:#ece6d8;fill-opacity:1;stroke:none;">
    <path d="m 44.75,14.024543 -4,0 0,-1.675447 c 0,-0.904279 -0.0295,-1.445003 -0.08846,-1.622174 -0.20897,-0.177143 -0.773329,-0.265723 -0.957476,-0.265737 -0.156017,1.4e-5 -0.762504,0.100038 -0.829124,0.246767 C 38.8083,10.854709 38.75,11.452059 38.75,12.25 l 0,7.777497 c 0,0.704806 -0.05629,1.03318 0.127731,1.217199 0.26849,0.198332 0.683764,0.208349 0.855506,0.208346 0.19946,3e-6 0.757958,0.07571 0.966763,-0.178042 0.08379,-0.203739 0.08383,-0.948554 0.08383,-1.679308 l 0,-1.717556 -1.03383,0.025 0,-2.653136 5,0 0,9 -3.017989,0.01353 -0.271261,-1.161201 c -0.13326,0.460653 -0.429456,0.826027 -0.888587,1.096123 -0.459146,0.270096 -0.998465,0.405144 -1.617955,0.405144 -0.731234,0 -1.414045,-0.181411 -2.048436,-0.544234 -0.634398,-0.362821 -1.115159,-0.810607 -1.442287,-1.343356 -0.327131,-0.532747 -0.530526,-1.084105 -0.610186,-1.654075 -0.07966,-0.569962 -0.119493,-1.422573 -0.119492,-2.557832 l 0,-4.813882 c -10e-7,-1.567397 0.08433,-2.715305 0.252952,-3.443728 0.168632,-0.7283943 0.657773,-1.3998066 1.467424,-2.0142379 0.809647,-0.6143992 1.850727,-0.9216069 3.123246,-0.9216238 1.243125,1.69e-5 2.280895,0.2663912 3.113313,0.7991234 0.8324,0.5327647 1.374408,1.164513 1.626024,1.8952463 C 44.568362,10.73576 44.75,11.774034 44.75,13.119824 z" id="path3020" style="line-height:200%"/>
    <path d="m 49.75,15.25 -3.970142,0 0.0026,-0.265798 c 0.01027,-1.056547 0.117014,-1.880109 0.351044,-2.47054 0.234028,-0.590407 0.704276,-1.112199 1.410743,-1.565379 0.706464,-0.453155 1.612929,-0.679738 2.719398,-0.679751 1.324568,1.3e-5 2.332029,0.258187 3.022382,0.774525 0.690339,0.516363 1.104368,1.146057 1.242087,1.889086 0.137702,0.74305 0.206558,2.217283 0.206567,4.422702 l 0,6.895483 -4.100886,0 0,-1.185321 c 0.01711,0.433316 -0.173339,0.779328 -0.571343,1.038036 -0.398013,0.258709 -0.871047,0.388063 -1.419102,0.388063 -0.711244,0 -1.36587,-0.215483 -1.963877,-0.646451 -0.59801,-0.430967 -0.897014,-1.355337 -0.897013,-2.773115 l 0,-1.094388 c -10e-7,-1.047211 0.159203,-1.766876 0.477611,-2.159002 0.318405,-0.392111 1.07721,-0.837273 2.276412,-1.335487 1.190443,-0.500332 1.820491,-0.822224 1.890148,-0.965675 0.06964,-0.143434 0.104472,-0.478346 0.104477,-1.004738 -5e-6,-0.66341 -0.03662,-1.074741 -0.109851,-1.233988 -0.07323,-0.159228 -0.175726,-0.238847 -0.307463,-0.238858 -0.157615,1.1e-5 -0.257218,0.05902 -0.298805,0.177061 -0.0416,0.118053 -0.06239,0.539735 -0.06238,1.265049 z m 1,2.636324 c -0.345876,0.419661 -0.781005,0.798356 -0.867567,1.08609 -0.08657,0.287743 -0.129854,0.726396 -0.129849,1.315957 -5e-6,0.665558 0.03034,1.070698 0.09104,1.215418 0.06069,0.144726 0.169447,0.217087 0.326267,0.217085 0.14527,2e-6 0.460696,-0.07729 0.508463,-0.18189 0.04776,-0.104592 0.07164,-0.476217 0.07164,-1.114881 z" id="path3022" style="line-height:200%"/>
    <path d="m 59.95249,10.477387 -0.06603,1.269406 c 0.04802,-0.462096 0.292758,-0.829555 0.73421,-1.102378 0.44144,-0.272797 0.942519,-0.409203 1.503238,-0.409217 1.097404,1.4e-5 1.90065,0.503879 2.409743,1.511595 0.21411,-0.466806 0.536789,-0.835444 0.968039,-1.105912 0.43123,-0.270441 0.912598,-0.405669 1.444106,-0.405683 0.695174,1.4e-5 1.273497,0.182888 1.734967,0.54862 0.461444,0.365759 0.756107,0.809559 0.883993,1.331397 0.127856,0.521864 0.191792,1.334408 0.191807,2.437631 l 0,9.708768 L 65.75,24.25 l 0,-8.923099 c 0,-1.120354 -0.02853,-1.787712 -0.08555,-2.002075 -0.05704,-0.21434 -0.270333,-0.309901 -0.423607,-0.309912 -0.162901,1.1e-5 -0.337258,0.09364 -0.398683,0.304131 -0.06145,0.210507 -0.08107,0.879846 -0.09216,2.007856 l 0,8.923099 -4,0 0,-8.701466 c 0,-1.286527 -0.02341,-2.032365 -0.07023,-2.23752 -0.04683,-0.205132 -0.200186,-0.296093 -0.355067,-0.296104 -0.105265,1.1e-5 -0.335974,0.02308 -0.419215,0.119221 -0.08325,0.09616 -0.129977,0.225069 -0.140178,0.386731 -0.01021,0.161685 -0.01532,0.574433 -0.01531,1.238248 l 0,9.4775 -3.977636,0.025 0,-13.784227 z" id="path3024" style="line-height:200%"/>
    <path d="m 79.75,17.25 -5,0 0,3 c 0,0.564691 0.02746,0.905681 0.08239,1.022973 0.05492,0.117296 0.33878,0.233177 0.478453,0.233175 0.189487,2e-6 0.320818,-0.08692 0.393993,-0.260771 0.07316,-0.173843 0.109748,-0.572015 0.109752,-1.194514 L 75.79947,18.25 l 3.95053,0 0.01512,1.041802 c -10e-6,0.820225 -0.04994,1.457173 -0.14977,1.910847 -0.09986,0.453679 -0.335155,0.940869 -0.705894,1.461569 -0.370757,0.520703 -0.839978,0.910915 -1.407666,1.170638 -0.567702,0.259721 -1.273301,0.389584 -2.116796,0.389584 -0.816435,0 -1.541061,-0.127454 -2.17388,-0.382358 -0.632826,-0.254905 -1.126861,-0.606788 -1.482111,-1.055648 -0.355252,-0.448858 -0.600162,-0.938456 -0.734729,-1.468795 -0.134569,-0.530333 -0.201852,-1.290859 -0.201852,-2.28158 l 0,-3.814782 c 0,-1.170418 0.152124,-2.102801 0.456373,-2.797151 0.304248,-0.694328 0.803875,-1.227178 1.498882,-1.598553 0.695003,-0.371347 1.487992,-0.557028 2.378969,-0.557041 1.084777,1.3e-5 1.985654,0.2235 2.702638,0.670461 0.716967,0.446987 1.218851,1.036599 1.50565,1.768837 0.28678,0.732262 0.430176,1.744132 0.430186,3.035615 z m -4.138442,-2.102242 0,-0.754663 c -5e-6,-0.648039 -0.02481,-1.044325 -0.07444,-1.188859 -0.04964,-0.144512 -0.128001,-0.216773 -0.235102,-0.216784 -0.162035,1.1e-5 -0.450013,-0.0016 -0.490809,0.109595 -0.04081,0.111231 -0.06121,0.524169 -0.06121,1.238814 l 0,0.754663 z" id="path3026" style="line-height:200%"/>
    <path d="m 81.762625,7.3026134 3.307786,0 c 2.006038,1.68e-5 3.378916,0.100231 4.118639,0.3006422 0.739707,0.2004444 1.305586,0.5335882 1.697638,0.9994321 0.392033,0.465875 0.635759,0.976803 0.731175,1.5327873 0.0954,0.556013 0.143099,1.621855 0.143111,3.197533 l 0,5.78208 c -1.2e-5,1.496389 -0.07115,2.509797 -0.213416,3.040225 -0.142288,0.530431 -0.395386,0.949705 -0.759297,1.257821 -0.36393,0.308118 -0.802948,0.521005 -1.317052,0.638661 -0.514123,0.117657 -1.275085,0.176486 -2.28289,0.176486 l -5.425694,0 z M 85.75,10.25 l 0,11 c 0.35954,4e-6 1.787308,-0.435095 1.895636,-0.630972 0.108317,-0.195874 0.162484,-0.827492 0.162484,-1.894858 l 0,-6.413916 c 0,-0.727163 -0.01938,-1.179697 -0.05812,-1.357603 -0.03876,-0.17788 -0.118327,-0.30312 -0.238725,-0.375722 C 87.390865,10.504359 86.007884,10.250014 85.75,10.25 z" id="path3028" style="line-height:200%"/>
    <path d="m 101.75,17.25 -5,0 0,3.125001 c 0,0.566041 0.02746,0.907845 0.08239,1.025416 0.05492,0.117577 0.305966,0.132575 0.445638,0.132573 0.189489,2e-6 0.32082,-0.08713 0.393994,-0.261394 0.07317,-0.174258 0.109747,-0.573381 0.109753,-1.197368 l 0.01769,-1.824228 3.950535,0 -0.0177,1.063354 c -10e-6,0.822185 -0.0499,1.460654 -0.14977,1.915411 -0.0999,0.454764 -0.33516,0.943117 -0.70589,1.465061 -0.37077,0.521947 -0.83998,0.913091 -1.407676,1.173434 -0.567703,0.260342 -1.273301,0.390514 -2.116796,0.390514 -0.816435,0 -1.541061,-0.127758 -2.173879,-0.383271 -0.632826,-0.255515 -1.126863,-0.608238 -1.482112,-1.05817 C 93.340934,22.366402 93.096025,21.875635 92.961458,21.344029 92.82689,20.81243 92.759606,20.050087 92.759607,19.057 l 0,-3.823894 c -10e-7,-1.173213 0.152123,-2.107823 0.456373,-2.803832 0.304248,-0.695986 0.803875,-1.230108 1.498882,-1.60237 0.695003,-0.372235 1.487992,-0.558359 2.378969,-0.558372 1.084775,1.3e-5 1.985654,0.224034 2.702635,0.672063 0.716974,0.448054 1.218854,1.039074 1.505654,1.773061 0.28679,0.734011 0.43017,1.748298 0.43018,3.042866 z m -4.171254,-2.090588 0,-0.756465 c -6e-6,-0.649588 -0.02482,-1.04682 -0.07445,-1.1917 -0.04964,-0.144856 -0.128002,-0.21729 -0.235101,-0.217301 -0.162035,1.1e-5 -0.4172,0.09955 -0.457998,0.211016 -0.04081,0.111497 -0.0612,0.525421 -0.0612,1.241774 l 0,0.756465 z" id="path3030" style="line-height:200%"/>
    <path d="M 111.70642,10.2653 109.75,24.25 l -5,0 -2,-14 3.52588,0 1.07156,9.896824 0.81278,-9.896824 z" id="path3032" style="line-height:200%"/>
    <path d="m 115.74222,20.277866 0,3.950415 -3.98294,0 0,-3.950415 z" id="path3034" style="line-height:200%"/>
    <path d="m 121.33435,10.280265 -0.16327,1.773973 c 0.34173,-1.262807 1.20929,-1.93582 2.60268,-2.01904 l 0,5.178258 c -0.86388,10e-6 -1.44977,0.08874 -1.75767,0.266194 -0.30792,0.177471 -0.49851,0.42958 -0.5718,0.756327 -0.0733,0.326764 -0.10994,1.140403 -0.10994,2.440919 l 0,5.551385 -4.58022,0 0,-13.948016 z" id="path3036" style="line-height:200%"/>
    <path d="m 133.72751,10.298634 0,13.915296 -3.97751,0.03607 0,-1 c -0.02,0.417647 -0.38501,0.593841 -0.79256,0.839413 -0.40755,0.245573 -0.87637,0.36836 -1.40648,0.36836 -0.59852,0 -1.09823,-0.118139 -1.49913,-0.354416 -0.40091,-0.236277 -0.69587,-0.548756 -0.88488,-0.937436 -0.18902,-0.388678 -0.30571,-0.783843 -0.35008,-1.185495 -0.0444,-0.401648 -0.0666,-1.191328 -0.0666,-2.369043 l 0,-9.312749 3.99973,0.025 0,9.393814 c 0,1.039364 0.0197,1.625842 0.0592,1.759434 0.0395,0.133598 0.2677,0.175395 0.42526,0.175393 0.16888,2e-6 0.42319,-0.04709 0.46014,-0.191281 0.0369,-0.144185 0.0554,-0.759089 0.0554,-1.844716 l 0,-9.292644 z" id="path3038" style="line-height:200%"/>
  </g>
</svg>